<mxfile host="app.diagrams.net" agent="Mozilla/5.0 (Windows NT 10.0; Win64; x64) AppleWebKit/537.36 (KHTML, like Gecko) Chrome/138.0.0.0 Safari/537.36" version="28.0.7">
  <diagram name="第 1 页" id="NeOZQ0dyBE4NOlgX1TNu">
    <mxGraphModel dx="951" dy="495" grid="1" gridSize="10" guides="1" tooltips="1" connect="1" arrows="1" fold="1" page="1" pageScale="1" pageWidth="5000" pageHeight="5000" math="0" shadow="0">
      <root>
        <mxCell id="0" />
        <mxCell id="1" parent="0" />
        <mxCell id="uWLSrax9oehgRug97Yif-1" value="" style="rounded=1;whiteSpace=wrap;html=1;labelBackgroundColor=none;sketch=1;curveFitting=1;jiggle=2;" vertex="1" parent="1">
          <mxGeometry x="110" y="70" width="760" height="460" as="geometry" />
        </mxCell>
        <mxCell id="uWLSrax9oehgRug97Yif-3" value="&lt;font style=&quot;font-size: 26px;&quot;&gt;MainWindow&lt;/font&gt;" style="text;html=1;align=center;verticalAlign=middle;whiteSpace=wrap;rounded=1;labelBackgroundColor=none;sketch=1;curveFitting=1;jiggle=2;" vertex="1" parent="1">
          <mxGeometry x="75" y="30" width="220" height="40" as="geometry" />
        </mxCell>
        <mxCell id="uWLSrax9oehgRug97Yif-4" value="QListWidget&lt;br&gt;用于切换副界面" style="rounded=1;whiteSpace=wrap;html=1;labelBackgroundColor=none;sketch=1;curveFitting=1;jiggle=2;" vertex="1" parent="1">
          <mxGeometry x="130" y="110" width="110" height="220" as="geometry" />
        </mxCell>
        <mxCell id="uWLSrax9oehgRug97Yif-5" value="状态栏" style="rounded=1;whiteSpace=wrap;html=1;labelBackgroundColor=none;sketch=1;curveFitting=1;jiggle=2;" vertex="1" parent="1">
          <mxGeometry x="130" y="496" width="720" height="20" as="geometry" />
        </mxCell>
        <mxCell id="uWLSrax9oehgRug97Yif-6" value="QPushButton&lt;br&gt;主要功能按键" style="rounded=1;whiteSpace=wrap;html=1;labelBackgroundColor=none;sketch=1;curveFitting=1;jiggle=2;" vertex="1" parent="1">
          <mxGeometry x="130" y="341" width="110" height="140" as="geometry" />
        </mxCell>
        <mxCell id="uWLSrax9oehgRug97Yif-7" value="QGroupBox&amp;nbsp; &amp;nbsp; 基础信息显示&lt;br&gt;&lt;br&gt;&lt;br&gt;&lt;br&gt;&lt;div&gt;&lt;br&gt;&lt;/div&gt;" style="rounded=1;whiteSpace=wrap;html=1;labelBackgroundColor=none;sketch=1;curveFitting=1;jiggle=2;" vertex="1" parent="1">
          <mxGeometry x="250" y="401" width="600" height="80" as="geometry" />
        </mxCell>
        <mxCell id="uWLSrax9oehgRug97Yif-8" value="QLCDNumber" style="rounded=1;whiteSpace=wrap;html=1;labelBackgroundColor=none;sketch=1;curveFitting=1;jiggle=2;" vertex="1" parent="1">
          <mxGeometry x="280" y="420" width="110" height="50" as="geometry" />
        </mxCell>
        <mxCell id="uWLSrax9oehgRug97Yif-9" value="QLCDNumber" style="rounded=1;whiteSpace=wrap;html=1;labelBackgroundColor=none;sketch=1;curveFitting=1;jiggle=2;" vertex="1" parent="1">
          <mxGeometry x="420" y="420" width="110" height="50" as="geometry" />
        </mxCell>
        <mxCell id="uWLSrax9oehgRug97Yif-10" value="QLCDNumber" style="rounded=1;whiteSpace=wrap;html=1;labelBackgroundColor=none;sketch=1;curveFitting=1;jiggle=2;" vertex="1" parent="1">
          <mxGeometry x="560" y="420" width="110" height="50" as="geometry" />
        </mxCell>
        <mxCell id="uWLSrax9oehgRug97Yif-11" value="QLCDNumber" style="rounded=1;whiteSpace=wrap;html=1;labelBackgroundColor=none;sketch=1;curveFitting=1;jiggle=2;" vertex="1" parent="1">
          <mxGeometry x="710" y="420" width="110" height="50" as="geometry" />
        </mxCell>
        <mxCell id="uWLSrax9oehgRug97Yif-12" value="QMdiArea&lt;br&gt;用于切换副界面" style="rounded=1;whiteSpace=wrap;html=1;labelBackgroundColor=none;sketch=1;curveFitting=1;jiggle=2;" vertex="1" parent="1">
          <mxGeometry x="250" y="110" width="600" height="280" as="geometry" />
        </mxCell>
        <mxCell id="uWLSrax9oehgRug97Yif-13" value="QMenu 菜单栏" style="rounded=1;whiteSpace=wrap;html=1;labelBackgroundColor=none;sketch=1;curveFitting=1;jiggle=2;" vertex="1" parent="1">
          <mxGeometry x="130" y="80" width="720" height="20" as="geometry" />
        </mxCell>
        <mxCell id="uWLSrax9oehgRug97Yif-89" style="edgeStyle=orthogonalEdgeStyle;rounded=1;orthogonalLoop=1;jettySize=auto;html=1;exitX=0.5;exitY=1;exitDx=0;exitDy=0;entryX=0.5;entryY=0;entryDx=0;entryDy=0;labelBackgroundColor=none;fontColor=default;sketch=1;curveFitting=1;jiggle=2;" edge="1" parent="1" source="uWLSrax9oehgRug97Yif-18" target="uWLSrax9oehgRug97Yif-86">
          <mxGeometry relative="1" as="geometry" />
        </mxCell>
        <mxCell id="uWLSrax9oehgRug97Yif-90" style="edgeStyle=orthogonalEdgeStyle;rounded=1;orthogonalLoop=1;jettySize=auto;html=1;exitX=0.5;exitY=1;exitDx=0;exitDy=0;entryX=0.5;entryY=0;entryDx=0;entryDy=0;labelBackgroundColor=none;fontColor=default;sketch=1;curveFitting=1;jiggle=2;" edge="1" parent="1" source="uWLSrax9oehgRug97Yif-18" target="uWLSrax9oehgRug97Yif-25">
          <mxGeometry relative="1" as="geometry" />
        </mxCell>
        <mxCell id="uWLSrax9oehgRug97Yif-18" value="开始" style="rounded=1;whiteSpace=wrap;html=1;labelBackgroundColor=none;sketch=1;curveFitting=1;jiggle=2;" vertex="1" parent="1">
          <mxGeometry x="1280.09" y="90" width="60" height="30" as="geometry" />
        </mxCell>
        <mxCell id="uWLSrax9oehgRug97Yif-91" style="edgeStyle=orthogonalEdgeStyle;rounded=1;orthogonalLoop=1;jettySize=auto;html=1;exitX=0.5;exitY=1;exitDx=0;exitDy=0;labelBackgroundColor=none;fontColor=default;sketch=1;curveFitting=1;jiggle=2;" edge="1" parent="1" source="uWLSrax9oehgRug97Yif-25" target="uWLSrax9oehgRug97Yif-74">
          <mxGeometry relative="1" as="geometry">
            <Array as="points">
              <mxPoint x="1545" y="215" />
              <mxPoint x="1280" y="215" />
            </Array>
          </mxGeometry>
        </mxCell>
        <mxCell id="uWLSrax9oehgRug97Yif-92" style="edgeStyle=orthogonalEdgeStyle;rounded=1;orthogonalLoop=1;jettySize=auto;html=1;exitX=0.5;exitY=1;exitDx=0;exitDy=0;labelBackgroundColor=none;fontColor=default;sketch=1;curveFitting=1;jiggle=2;" edge="1" parent="1" source="uWLSrax9oehgRug97Yif-25" target="uWLSrax9oehgRug97Yif-78">
          <mxGeometry relative="1" as="geometry">
            <Array as="points">
              <mxPoint x="1545" y="215" />
              <mxPoint x="1830" y="215" />
            </Array>
          </mxGeometry>
        </mxCell>
        <mxCell id="uWLSrax9oehgRug97Yif-93" style="edgeStyle=orthogonalEdgeStyle;rounded=1;orthogonalLoop=1;jettySize=auto;html=1;exitX=0.5;exitY=1;exitDx=0;exitDy=0;labelBackgroundColor=none;fontColor=default;sketch=1;curveFitting=1;jiggle=2;" edge="1" parent="1" source="uWLSrax9oehgRug97Yif-25" target="uWLSrax9oehgRug97Yif-75">
          <mxGeometry relative="1" as="geometry">
            <Array as="points">
              <mxPoint x="1545" y="215" />
              <mxPoint x="1410" y="215" />
            </Array>
          </mxGeometry>
        </mxCell>
        <mxCell id="uWLSrax9oehgRug97Yif-94" style="edgeStyle=orthogonalEdgeStyle;rounded=1;orthogonalLoop=1;jettySize=auto;html=1;exitX=0.5;exitY=1;exitDx=0;exitDy=0;entryX=0.5;entryY=0;entryDx=0;entryDy=0;labelBackgroundColor=none;fontColor=default;sketch=1;curveFitting=1;jiggle=2;" edge="1" parent="1" source="uWLSrax9oehgRug97Yif-25" target="uWLSrax9oehgRug97Yif-77">
          <mxGeometry relative="1" as="geometry">
            <Array as="points">
              <mxPoint x="1545" y="215" />
              <mxPoint x="1680" y="215" />
            </Array>
          </mxGeometry>
        </mxCell>
        <mxCell id="uWLSrax9oehgRug97Yif-95" style="edgeStyle=orthogonalEdgeStyle;rounded=1;orthogonalLoop=1;jettySize=auto;html=1;exitX=0.5;exitY=1;exitDx=0;exitDy=0;entryX=0.5;entryY=0;entryDx=0;entryDy=0;labelBackgroundColor=none;fontColor=default;sketch=1;curveFitting=1;jiggle=2;" edge="1" parent="1" source="uWLSrax9oehgRug97Yif-25" target="uWLSrax9oehgRug97Yif-76">
          <mxGeometry relative="1" as="geometry" />
        </mxCell>
        <mxCell id="uWLSrax9oehgRug97Yif-25" value="副界面初始化" style="rounded=1;whiteSpace=wrap;html=1;labelBackgroundColor=none;sketch=1;curveFitting=1;jiggle=2;" vertex="1" parent="1">
          <mxGeometry x="1502.34" y="170" width="85.14" height="30" as="geometry" />
        </mxCell>
        <mxCell id="uWLSrax9oehgRug97Yif-46" value="" style="edgeStyle=orthogonalEdgeStyle;rounded=1;orthogonalLoop=1;jettySize=auto;html=1;labelBackgroundColor=none;fontColor=default;sketch=1;curveFitting=1;jiggle=2;" edge="1" parent="1" source="uWLSrax9oehgRug97Yif-47" target="uWLSrax9oehgRug97Yif-49">
          <mxGeometry relative="1" as="geometry" />
        </mxCell>
        <mxCell id="uWLSrax9oehgRug97Yif-47" value="MainWindow_start" style="rounded=1;whiteSpace=wrap;html=1;labelBackgroundColor=none;sketch=1;curveFitting=1;jiggle=2;" vertex="1" parent="1">
          <mxGeometry x="2310" y="171" width="110" height="30" as="geometry" />
        </mxCell>
        <mxCell id="uWLSrax9oehgRug97Yif-48" style="edgeStyle=orthogonalEdgeStyle;rounded=1;orthogonalLoop=1;jettySize=auto;html=1;exitX=1;exitY=0.5;exitDx=0;exitDy=0;entryX=0;entryY=0.5;entryDx=0;entryDy=0;labelBackgroundColor=none;fontColor=default;sketch=1;curveFitting=1;jiggle=2;" edge="1" parent="1" source="uWLSrax9oehgRug97Yif-49" target="uWLSrax9oehgRug97Yif-50">
          <mxGeometry relative="1" as="geometry" />
        </mxCell>
        <mxCell id="uWLSrax9oehgRug97Yif-49" value="定时更新电机基础信息upDateLedData()" style="rounded=1;whiteSpace=wrap;html=1;labelBackgroundColor=none;sketch=1;curveFitting=1;jiggle=2;" vertex="1" parent="1">
          <mxGeometry x="2450" y="171" width="230" height="30" as="geometry" />
        </mxCell>
        <mxCell id="uWLSrax9oehgRug97Yif-50" value="创建MdiArea副窗口createSubWindow()" style="rounded=1;whiteSpace=wrap;html=1;labelBackgroundColor=none;sketch=1;curveFitting=1;jiggle=2;" vertex="1" parent="1">
          <mxGeometry x="2720" y="171" width="240" height="30" as="geometry" />
        </mxCell>
        <mxCell id="uWLSrax9oehgRug97Yif-51" style="edgeStyle=orthogonalEdgeStyle;rounded=1;orthogonalLoop=1;jettySize=auto;html=1;exitX=1;exitY=0.5;exitDx=0;exitDy=0;entryX=0;entryY=0.5;entryDx=0;entryDy=0;labelBackgroundColor=none;fontColor=default;sketch=1;curveFitting=1;jiggle=2;" edge="1" parent="1" source="uWLSrax9oehgRug97Yif-52" target="uWLSrax9oehgRug97Yif-54">
          <mxGeometry relative="1" as="geometry" />
        </mxCell>
        <mxCell id="uWLSrax9oehgRug97Yif-52" value="创建下侧状态栏createStatusBar()" style="rounded=1;whiteSpace=wrap;html=1;labelBackgroundColor=none;sketch=1;curveFitting=1;jiggle=2;" vertex="1" parent="1">
          <mxGeometry x="2340" y="241" width="220" height="30" as="geometry" />
        </mxCell>
        <mxCell id="uWLSrax9oehgRug97Yif-53" value="" style="curved=1;endArrow=classic;html=1;rounded=1;exitX=1;exitY=0.5;exitDx=0;exitDy=0;entryX=0;entryY=0.5;entryDx=0;entryDy=0;labelBackgroundColor=none;fontColor=default;sketch=1;curveFitting=1;jiggle=2;" edge="1" parent="1" source="uWLSrax9oehgRug97Yif-50" target="uWLSrax9oehgRug97Yif-52">
          <mxGeometry width="50" height="50" relative="1" as="geometry">
            <mxPoint x="2960" y="191" as="sourcePoint" />
            <mxPoint x="2290" y="241" as="targetPoint" />
            <Array as="points">
              <mxPoint x="2990" y="186" />
              <mxPoint x="2980" y="211" />
              <mxPoint x="2940" y="221" />
              <mxPoint x="2330" y="221" />
              <mxPoint x="2310" y="241" />
              <mxPoint x="2320" y="261" />
            </Array>
          </mxGeometry>
        </mxCell>
        <mxCell id="uWLSrax9oehgRug97Yif-54" value="创建菜单栏Action动作on_action1_triggered()" style="rounded=1;whiteSpace=wrap;html=1;labelBackgroundColor=none;sketch=1;curveFitting=1;jiggle=2;" vertex="1" parent="1">
          <mxGeometry x="2600" y="241" width="390" height="30" as="geometry" />
        </mxCell>
        <mxCell id="uWLSrax9oehgRug97Yif-56" value="切换界面槽函数on_listWidget_itemClicked(QListWidgetItem *item)" style="rounded=1;whiteSpace=wrap;html=1;labelBackgroundColor=none;sketch=1;curveFitting=1;jiggle=2;" vertex="1" parent="1">
          <mxGeometry x="2340" y="311" width="380" height="30" as="geometry" />
        </mxCell>
        <mxCell id="uWLSrax9oehgRug97Yif-60" value="" style="curved=1;endArrow=classic;html=1;rounded=1;exitX=1;exitY=0.5;exitDx=0;exitDy=0;entryX=-0.001;entryY=0.565;entryDx=0;entryDy=0;entryPerimeter=0;labelBackgroundColor=none;fontColor=default;sketch=1;curveFitting=1;jiggle=2;" edge="1" parent="1" target="uWLSrax9oehgRug97Yif-56">
          <mxGeometry width="50" height="50" relative="1" as="geometry">
            <mxPoint x="2990" y="256" as="sourcePoint" />
            <mxPoint x="2300" y="331" as="targetPoint" />
            <Array as="points">
              <mxPoint x="3020" y="256" />
              <mxPoint x="2980" y="301" />
              <mxPoint x="2340" y="301" />
              <mxPoint x="2320" y="301" />
              <mxPoint x="2310" y="321" />
              <mxPoint x="2320" y="331" />
            </Array>
          </mxGeometry>
        </mxCell>
        <mxCell id="uWLSrax9oehgRug97Yif-118" style="edgeStyle=orthogonalEdgeStyle;rounded=1;orthogonalLoop=1;jettySize=auto;html=1;exitX=0.5;exitY=1;exitDx=0;exitDy=0;entryX=0.5;entryY=0;entryDx=0;entryDy=0;labelBackgroundColor=none;fontColor=default;sketch=1;curveFitting=1;jiggle=2;" edge="1" parent="1" source="uWLSrax9oehgRug97Yif-74" target="uWLSrax9oehgRug97Yif-117">
          <mxGeometry relative="1" as="geometry" />
        </mxCell>
        <mxCell id="uWLSrax9oehgRug97Yif-74" value="connect_widget.ui" style="rounded=1;whiteSpace=wrap;html=1;labelBackgroundColor=none;sketch=1;curveFitting=1;jiggle=2;" vertex="1" parent="1">
          <mxGeometry x="1220" y="235" width="120.09" height="30" as="geometry" />
        </mxCell>
        <mxCell id="uWLSrax9oehgRug97Yif-110" style="edgeStyle=orthogonalEdgeStyle;rounded=1;orthogonalLoop=1;jettySize=auto;html=1;exitX=0.5;exitY=1;exitDx=0;exitDy=0;entryX=0.5;entryY=0;entryDx=0;entryDy=0;labelBackgroundColor=none;fontColor=default;sketch=1;curveFitting=1;jiggle=2;" edge="1" parent="1" source="uWLSrax9oehgRug97Yif-75" target="uWLSrax9oehgRug97Yif-109">
          <mxGeometry relative="1" as="geometry" />
        </mxCell>
        <mxCell id="uWLSrax9oehgRug97Yif-75" value="para_widget.ui" style="rounded=1;whiteSpace=wrap;html=1;labelBackgroundColor=none;sketch=1;curveFitting=1;jiggle=2;" vertex="1" parent="1">
          <mxGeometry x="1350" y="235" width="120.09" height="30" as="geometry" />
        </mxCell>
        <mxCell id="uWLSrax9oehgRug97Yif-107" style="edgeStyle=orthogonalEdgeStyle;rounded=1;orthogonalLoop=1;jettySize=auto;html=1;exitX=0.5;exitY=1;exitDx=0;exitDy=0;entryX=0.5;entryY=0;entryDx=0;entryDy=0;labelBackgroundColor=none;fontColor=default;sketch=1;curveFitting=1;jiggle=2;" edge="1" parent="1" source="uWLSrax9oehgRug97Yif-76" target="uWLSrax9oehgRug97Yif-105">
          <mxGeometry relative="1" as="geometry" />
        </mxCell>
        <mxCell id="uWLSrax9oehgRug97Yif-76" value="status_widget.ui" style="rounded=1;whiteSpace=wrap;html=1;labelBackgroundColor=none;sketch=1;curveFitting=1;jiggle=2;" vertex="1" parent="1">
          <mxGeometry x="1484.86" y="235" width="120.09" height="30" as="geometry" />
        </mxCell>
        <mxCell id="uWLSrax9oehgRug97Yif-98" style="edgeStyle=orthogonalEdgeStyle;rounded=1;orthogonalLoop=1;jettySize=auto;html=1;exitX=0.5;exitY=1;exitDx=0;exitDy=0;entryX=0.5;entryY=0;entryDx=0;entryDy=0;labelBackgroundColor=none;fontColor=default;sketch=1;curveFitting=1;jiggle=2;" edge="1" parent="1" source="uWLSrax9oehgRug97Yif-77" target="uWLSrax9oehgRug97Yif-97">
          <mxGeometry relative="1" as="geometry" />
        </mxCell>
        <mxCell id="uWLSrax9oehgRug97Yif-77" value="monitor_widget.ui" style="rounded=1;whiteSpace=wrap;html=1;labelBackgroundColor=none;sketch=1;curveFitting=1;jiggle=2;" vertex="1" parent="1">
          <mxGeometry x="1620" y="235" width="130" height="30" as="geometry" />
        </mxCell>
        <mxCell id="uWLSrax9oehgRug97Yif-78" value="warning_widget.ui" style="rounded=1;whiteSpace=wrap;html=1;labelBackgroundColor=none;sketch=1;curveFitting=1;jiggle=2;" vertex="1" parent="1">
          <mxGeometry x="1770" y="235" width="120.09" height="30" as="geometry" />
        </mxCell>
        <mxCell id="uWLSrax9oehgRug97Yif-123" style="edgeStyle=orthogonalEdgeStyle;rounded=1;orthogonalLoop=1;jettySize=auto;html=1;exitX=0.5;exitY=1;exitDx=0;exitDy=0;labelBackgroundColor=none;fontColor=default;sketch=1;curveFitting=1;jiggle=2;" edge="1" parent="1" source="uWLSrax9oehgRug97Yif-86">
          <mxGeometry relative="1" as="geometry">
            <mxPoint x="1090.2857142857142" y="230" as="targetPoint" />
          </mxGeometry>
        </mxCell>
        <mxCell id="uWLSrax9oehgRug97Yif-86" value="mainwindow初始化" style="rounded=1;whiteSpace=wrap;html=1;labelBackgroundColor=none;sketch=1;curveFitting=1;jiggle=2;" vertex="1" parent="1">
          <mxGeometry x="1030" y="170" width="120.09" height="30" as="geometry" />
        </mxCell>
        <mxCell id="uWLSrax9oehgRug97Yif-102" style="edgeStyle=orthogonalEdgeStyle;rounded=1;orthogonalLoop=1;jettySize=auto;html=1;exitX=0.5;exitY=1;exitDx=0;exitDy=0;entryX=0.5;entryY=0;entryDx=0;entryDy=0;labelBackgroundColor=none;fontColor=default;sketch=1;curveFitting=1;jiggle=2;" edge="1" parent="1" source="uWLSrax9oehgRug97Yif-87" target="uWLSrax9oehgRug97Yif-100">
          <mxGeometry relative="1" as="geometry">
            <Array as="points">
              <mxPoint x="1090" y="340" />
              <mxPoint x="1020" y="340" />
            </Array>
          </mxGeometry>
        </mxCell>
        <mxCell id="uWLSrax9oehgRug97Yif-103" style="edgeStyle=orthogonalEdgeStyle;rounded=1;orthogonalLoop=1;jettySize=auto;html=1;exitX=0.5;exitY=1;exitDx=0;exitDy=0;entryX=0.5;entryY=0;entryDx=0;entryDy=0;labelBackgroundColor=none;fontColor=default;sketch=1;curveFitting=1;jiggle=2;" edge="1" parent="1" source="uWLSrax9oehgRug97Yif-87" target="uWLSrax9oehgRug97Yif-101">
          <mxGeometry relative="1" as="geometry">
            <Array as="points">
              <mxPoint x="1090" y="340" />
              <mxPoint x="1150" y="340" />
            </Array>
          </mxGeometry>
        </mxCell>
        <mxCell id="uWLSrax9oehgRug97Yif-87" value="定时器初始化启动" style="rounded=1;whiteSpace=wrap;html=1;labelBackgroundColor=none;sketch=1;curveFitting=1;jiggle=2;" vertex="1" parent="1">
          <mxGeometry x="1030" y="300" width="120.09" height="30" as="geometry" />
        </mxCell>
        <mxCell id="uWLSrax9oehgRug97Yif-97" value="QCustomPlot控件刷新" style="rounded=1;whiteSpace=wrap;html=1;labelBackgroundColor=none;sketch=1;curveFitting=1;jiggle=2;" vertex="1" parent="1">
          <mxGeometry x="1620" y="300" width="130" height="30" as="geometry" />
        </mxCell>
        <mxCell id="uWLSrax9oehgRug97Yif-100" value="基础信息实时显示" style="rounded=1;whiteSpace=wrap;html=1;labelBackgroundColor=none;sketch=1;curveFitting=1;jiggle=2;" vertex="1" parent="1">
          <mxGeometry x="960" y="360" width="120.09" height="30" as="geometry" />
        </mxCell>
        <mxCell id="uWLSrax9oehgRug97Yif-101" value="QMidArea界面切换" style="rounded=1;whiteSpace=wrap;html=1;labelBackgroundColor=none;sketch=1;curveFitting=1;jiggle=2;" vertex="1" parent="1">
          <mxGeometry x="1090" y="360" width="120.09" height="30" as="geometry" />
        </mxCell>
        <mxCell id="uWLSrax9oehgRug97Yif-105" value="定时刷新电机参数" style="rounded=1;whiteSpace=wrap;html=1;labelBackgroundColor=none;sketch=1;curveFitting=1;jiggle=2;" vertex="1" parent="1">
          <mxGeometry x="1484.96" y="300" width="125.04" height="30" as="geometry" />
        </mxCell>
        <mxCell id="uWLSrax9oehgRug97Yif-112" style="edgeStyle=orthogonalEdgeStyle;rounded=1;orthogonalLoop=1;jettySize=auto;html=1;exitX=0.5;exitY=1;exitDx=0;exitDy=0;entryX=0.5;entryY=0;entryDx=0;entryDy=0;labelBackgroundColor=none;fontColor=default;sketch=1;curveFitting=1;jiggle=2;" edge="1" parent="1" source="uWLSrax9oehgRug97Yif-109" target="uWLSrax9oehgRug97Yif-111">
          <mxGeometry relative="1" as="geometry" />
        </mxCell>
        <mxCell id="uWLSrax9oehgRug97Yif-109" value="电机参数配置" style="rounded=1;whiteSpace=wrap;html=1;labelBackgroundColor=none;sketch=1;curveFitting=1;jiggle=2;" vertex="1" parent="1">
          <mxGeometry x="1350" y="300" width="120.09" height="30" as="geometry" />
        </mxCell>
        <mxCell id="uWLSrax9oehgRug97Yif-114" style="edgeStyle=orthogonalEdgeStyle;rounded=1;orthogonalLoop=1;jettySize=auto;html=1;exitX=0.5;exitY=1;exitDx=0;exitDy=0;entryX=0.5;entryY=0;entryDx=0;entryDy=0;labelBackgroundColor=none;fontColor=default;sketch=1;curveFitting=1;jiggle=2;" edge="1" parent="1" source="uWLSrax9oehgRug97Yif-111" target="uWLSrax9oehgRug97Yif-113">
          <mxGeometry relative="1" as="geometry" />
        </mxCell>
        <mxCell id="uWLSrax9oehgRug97Yif-111" value="form1.ui界面配置参数" style="rounded=1;whiteSpace=wrap;html=1;labelBackgroundColor=none;sketch=1;curveFitting=1;jiggle=2;" vertex="1" parent="1">
          <mxGeometry x="1350" y="360" width="120.09" height="30" as="geometry" />
        </mxCell>
        <mxCell id="uWLSrax9oehgRug97Yif-116" style="edgeStyle=orthogonalEdgeStyle;rounded=1;orthogonalLoop=1;jettySize=auto;html=1;exitX=0.5;exitY=1;exitDx=0;exitDy=0;entryX=0.5;entryY=0;entryDx=0;entryDy=0;labelBackgroundColor=none;fontColor=default;sketch=1;curveFitting=1;jiggle=2;" edge="1" parent="1" source="uWLSrax9oehgRug97Yif-113" target="uWLSrax9oehgRug97Yif-115">
          <mxGeometry relative="1" as="geometry" />
        </mxCell>
        <mxCell id="uWLSrax9oehgRug97Yif-113" value="参数合法性检查" style="rounded=1;whiteSpace=wrap;html=1;labelBackgroundColor=none;sketch=1;curveFitting=1;jiggle=2;" vertex="1" parent="1">
          <mxGeometry x="1350" y="420" width="120.09" height="30" as="geometry" />
        </mxCell>
        <mxCell id="uWLSrax9oehgRug97Yif-115" value="参数下发" style="rounded=1;whiteSpace=wrap;html=1;labelBackgroundColor=none;sketch=1;curveFitting=1;jiggle=2;" vertex="1" parent="1">
          <mxGeometry x="1350" y="481" width="120.09" height="30" as="geometry" />
        </mxCell>
        <mxCell id="uWLSrax9oehgRug97Yif-120" style="edgeStyle=orthogonalEdgeStyle;rounded=1;orthogonalLoop=1;jettySize=auto;html=1;exitX=0.5;exitY=1;exitDx=0;exitDy=0;entryX=0.5;entryY=0;entryDx=0;entryDy=0;labelBackgroundColor=none;fontColor=default;sketch=1;curveFitting=1;jiggle=2;" edge="1" parent="1" source="uWLSrax9oehgRug97Yif-117" target="uWLSrax9oehgRug97Yif-119">
          <mxGeometry relative="1" as="geometry" />
        </mxCell>
        <mxCell id="uWLSrax9oehgRug97Yif-117" value="CAN连接开启/关闭" style="rounded=1;whiteSpace=wrap;html=1;labelBackgroundColor=none;sketch=1;curveFitting=1;jiggle=2;" vertex="1" parent="1">
          <mxGeometry x="1220" y="300" width="120.09" height="30" as="geometry" />
        </mxCell>
        <mxCell id="uWLSrax9oehgRug97Yif-119" value="一键查询电机参数" style="rounded=1;whiteSpace=wrap;html=1;labelBackgroundColor=none;sketch=1;curveFitting=1;jiggle=2;" vertex="1" parent="1">
          <mxGeometry x="1220" y="360" width="120.09" height="30" as="geometry" />
        </mxCell>
        <mxCell id="uWLSrax9oehgRug97Yif-122" value="菜单、状态栏初始化" style="rounded=1;whiteSpace=wrap;html=1;labelBackgroundColor=none;sketch=1;curveFitting=1;jiggle=2;" vertex="1" parent="1">
          <mxGeometry x="1030" y="235" width="120" height="30" as="geometry" />
        </mxCell>
        <mxCell id="uWLSrax9oehgRug97Yif-155" style="edgeStyle=orthogonalEdgeStyle;rounded=0;sketch=1;hachureGap=4;jiggle=2;curveFitting=1;orthogonalLoop=1;jettySize=auto;html=1;exitX=1;exitY=0.5;exitDx=0;exitDy=0;entryX=0;entryY=0.5;entryDx=0;entryDy=0;fontFamily=Architects Daughter;fontSource=https%3A%2F%2Ffonts.googleapis.com%2Fcss%3Ffamily%3DArchitects%2BDaughter;" edge="1" parent="1" source="uWLSrax9oehgRug97Yif-125" target="uWLSrax9oehgRug97Yif-127">
          <mxGeometry relative="1" as="geometry" />
        </mxCell>
        <mxCell id="uWLSrax9oehgRug97Yif-156" style="edgeStyle=orthogonalEdgeStyle;rounded=0;sketch=1;hachureGap=4;jiggle=2;curveFitting=1;orthogonalLoop=1;jettySize=auto;html=1;exitX=1;exitY=0.5;exitDx=0;exitDy=0;entryX=0;entryY=0.5;entryDx=0;entryDy=0;fontFamily=Architects Daughter;fontSource=https%3A%2F%2Ffonts.googleapis.com%2Fcss%3Ffamily%3DArchitects%2BDaughter;" edge="1" parent="1" source="uWLSrax9oehgRug97Yif-125" target="uWLSrax9oehgRug97Yif-151">
          <mxGeometry relative="1" as="geometry" />
        </mxCell>
        <mxCell id="uWLSrax9oehgRug97Yif-157" style="edgeStyle=orthogonalEdgeStyle;rounded=0;sketch=1;hachureGap=4;jiggle=2;curveFitting=1;orthogonalLoop=1;jettySize=auto;html=1;exitX=1;exitY=0.5;exitDx=0;exitDy=0;entryX=0;entryY=0.5;entryDx=0;entryDy=0;fontFamily=Architects Daughter;fontSource=https%3A%2F%2Ffonts.googleapis.com%2Fcss%3Ffamily%3DArchitects%2BDaughter;" edge="1" parent="1" source="uWLSrax9oehgRug97Yif-125" target="uWLSrax9oehgRug97Yif-152">
          <mxGeometry relative="1" as="geometry" />
        </mxCell>
        <mxCell id="uWLSrax9oehgRug97Yif-158" style="edgeStyle=orthogonalEdgeStyle;rounded=0;sketch=1;hachureGap=4;jiggle=2;curveFitting=1;orthogonalLoop=1;jettySize=auto;html=1;exitX=1;exitY=0.5;exitDx=0;exitDy=0;entryX=0;entryY=0.5;entryDx=0;entryDy=0;fontFamily=Architects Daughter;fontSource=https%3A%2F%2Ffonts.googleapis.com%2Fcss%3Ffamily%3DArchitects%2BDaughter;" edge="1" parent="1" source="uWLSrax9oehgRug97Yif-125" target="uWLSrax9oehgRug97Yif-153">
          <mxGeometry relative="1" as="geometry" />
        </mxCell>
        <mxCell id="uWLSrax9oehgRug97Yif-168" style="edgeStyle=orthogonalEdgeStyle;rounded=0;sketch=1;hachureGap=4;jiggle=2;curveFitting=1;orthogonalLoop=1;jettySize=auto;html=1;exitX=1;exitY=0.5;exitDx=0;exitDy=0;entryX=0;entryY=0.5;entryDx=0;entryDy=0;fontFamily=Architects Daughter;fontSource=https%3A%2F%2Ffonts.googleapis.com%2Fcss%3Ffamily%3DArchitects%2BDaughter;" edge="1" parent="1" source="uWLSrax9oehgRug97Yif-125" target="uWLSrax9oehgRug97Yif-163">
          <mxGeometry relative="1" as="geometry" />
        </mxCell>
        <mxCell id="uWLSrax9oehgRug97Yif-125" value="connect_widget_start" style="rounded=1;whiteSpace=wrap;html=1;labelBackgroundColor=none;sketch=1;curveFitting=1;jiggle=2;" vertex="1" parent="1">
          <mxGeometry x="2280" y="580" width="130" height="30" as="geometry" />
        </mxCell>
        <mxCell id="uWLSrax9oehgRug97Yif-126" style="edgeStyle=orthogonalEdgeStyle;rounded=1;orthogonalLoop=1;jettySize=auto;html=1;exitX=1;exitY=0.5;exitDx=0;exitDy=0;entryX=0;entryY=0.5;entryDx=0;entryDy=0;labelBackgroundColor=none;fontColor=default;sketch=1;curveFitting=1;jiggle=2;" edge="1" parent="1" source="uWLSrax9oehgRug97Yif-127" target="uWLSrax9oehgRug97Yif-128">
          <mxGeometry relative="1" as="geometry" />
        </mxCell>
        <mxCell id="uWLSrax9oehgRug97Yif-127" value="定时读取CAN数据ReadCanDataFunc()" style="rounded=1;whiteSpace=wrap;html=1;labelBackgroundColor=none;sketch=1;curveFitting=1;jiggle=2;" vertex="1" parent="1">
          <mxGeometry x="2470" y="500" width="230" height="30" as="geometry" />
        </mxCell>
        <mxCell id="uWLSrax9oehgRug97Yif-161" style="edgeStyle=orthogonalEdgeStyle;rounded=0;sketch=1;hachureGap=4;jiggle=2;curveFitting=1;orthogonalLoop=1;jettySize=auto;html=1;exitX=1;exitY=0.5;exitDx=0;exitDy=0;entryX=0;entryY=0.5;entryDx=0;entryDy=0;fontFamily=Architects Daughter;fontSource=https%3A%2F%2Ffonts.googleapis.com%2Fcss%3Ffamily%3DArchitects%2BDaughter;" edge="1" parent="1" source="uWLSrax9oehgRug97Yif-128" target="uWLSrax9oehgRug97Yif-160">
          <mxGeometry relative="1" as="geometry" />
        </mxCell>
        <mxCell id="uWLSrax9oehgRug97Yif-162" style="edgeStyle=orthogonalEdgeStyle;rounded=0;sketch=1;hachureGap=4;jiggle=2;curveFitting=1;orthogonalLoop=1;jettySize=auto;html=1;exitX=1;exitY=0.5;exitDx=0;exitDy=0;entryX=0;entryY=0.5;entryDx=0;entryDy=0;fontFamily=Architects Daughter;fontSource=https%3A%2F%2Ffonts.googleapis.com%2Fcss%3Ffamily%3DArchitects%2BDaughter;" edge="1" parent="1" source="uWLSrax9oehgRug97Yif-128" target="uWLSrax9oehgRug97Yif-159">
          <mxGeometry relative="1" as="geometry" />
        </mxCell>
        <mxCell id="uWLSrax9oehgRug97Yif-165" style="edgeStyle=orthogonalEdgeStyle;rounded=0;sketch=1;hachureGap=4;jiggle=2;curveFitting=1;orthogonalLoop=1;jettySize=auto;html=1;exitX=1;exitY=0.5;exitDx=0;exitDy=0;entryX=0;entryY=0.5;entryDx=0;entryDy=0;fontFamily=Architects Daughter;fontSource=https%3A%2F%2Ffonts.googleapis.com%2Fcss%3Ffamily%3DArchitects%2BDaughter;" edge="1" parent="1" source="uWLSrax9oehgRug97Yif-128" target="uWLSrax9oehgRug97Yif-164">
          <mxGeometry relative="1" as="geometry" />
        </mxCell>
        <mxCell id="uWLSrax9oehgRug97Yif-128" value="&lt;div&gt;接收CAN数据解析dataAnalysis_can()&lt;/div&gt;" style="rounded=1;whiteSpace=wrap;html=1;labelBackgroundColor=none;sketch=1;curveFitting=1;jiggle=2;" vertex="1" parent="1">
          <mxGeometry x="2760" y="500" width="240" height="30" as="geometry" />
        </mxCell>
        <mxCell id="uWLSrax9oehgRug97Yif-151" value="定时下发转速控制motorSpeedCtrl()" style="rounded=1;whiteSpace=wrap;html=1;labelBackgroundColor=none;sketch=1;curveFitting=1;jiggle=2;" vertex="1" parent="1">
          <mxGeometry x="2470" y="550" width="230" height="30" as="geometry" />
        </mxCell>
        <mxCell id="uWLSrax9oehgRug97Yif-152" value="定时读取电机信息motorElectricalParametersAcquisition()" style="rounded=1;whiteSpace=wrap;html=1;labelBackgroundColor=none;sketch=1;curveFitting=1;jiggle=2;" vertex="1" parent="1">
          <mxGeometry x="2470" y="600" width="330" height="30" as="geometry" />
        </mxCell>
        <mxCell id="uWLSrax9oehgRug97Yif-153" value="定时检查电机连接状态onTimeout()" style="rounded=1;whiteSpace=wrap;html=1;labelBackgroundColor=none;sketch=1;curveFitting=1;jiggle=2;" vertex="1" parent="1">
          <mxGeometry x="2470" y="650" width="230" height="30" as="geometry" />
        </mxCell>
        <mxCell id="uWLSrax9oehgRug97Yif-159" value="&lt;div&gt;基础信息解析（播种施肥/转速/状态）&lt;/div&gt;" style="rounded=1;whiteSpace=wrap;html=1;labelBackgroundColor=none;sketch=1;curveFitting=1;jiggle=2;" vertex="1" parent="1">
          <mxGeometry x="3050" y="450" width="240" height="30" as="geometry" />
        </mxCell>
        <mxCell id="uWLSrax9oehgRug97Yif-160" value="&lt;div&gt;配置信息反馈解析parseFeedbackData()&lt;/div&gt;" style="rounded=1;whiteSpace=wrap;html=1;labelBackgroundColor=none;sketch=1;curveFitting=1;jiggle=2;" vertex="1" parent="1">
          <mxGeometry x="3050" y="499" width="240" height="30" as="geometry" />
        </mxCell>
        <mxCell id="uWLSrax9oehgRug97Yif-167" style="edgeStyle=orthogonalEdgeStyle;rounded=0;sketch=1;hachureGap=4;jiggle=2;curveFitting=1;orthogonalLoop=1;jettySize=auto;html=1;exitX=1;exitY=0.5;exitDx=0;exitDy=0;entryX=0;entryY=0.5;entryDx=0;entryDy=0;fontFamily=Architects Daughter;fontSource=https%3A%2F%2Ffonts.googleapis.com%2Fcss%3Ffamily%3DArchitects%2BDaughter;" edge="1" parent="1" source="uWLSrax9oehgRug97Yif-163" target="uWLSrax9oehgRug97Yif-166">
          <mxGeometry relative="1" as="geometry" />
        </mxCell>
        <mxCell id="uWLSrax9oehgRug97Yif-163" value="CAN连接打开/关闭on_button_can_clicked()" style="rounded=1;whiteSpace=wrap;html=1;labelBackgroundColor=none;sketch=1;curveFitting=1;jiggle=2;" vertex="1" parent="1">
          <mxGeometry x="2470" y="710" width="260" height="30" as="geometry" />
        </mxCell>
        <mxCell id="uWLSrax9oehgRug97Yif-164" value="&lt;div&gt;获取当前连接电机编号getMotorNumber()&lt;/div&gt;" style="rounded=1;whiteSpace=wrap;html=1;labelBackgroundColor=none;sketch=1;curveFitting=1;jiggle=2;" vertex="1" parent="1">
          <mxGeometry x="3050" y="396" width="240" height="30" as="geometry" />
        </mxCell>
        <mxCell id="uWLSrax9oehgRug97Yif-166" value="查询基础信息on_pushButton_clicked()" style="rounded=1;whiteSpace=wrap;html=1;labelBackgroundColor=none;sketch=1;curveFitting=1;jiggle=2;" vertex="1" parent="1">
          <mxGeometry x="2770" y="710" width="220" height="30" as="geometry" />
        </mxCell>
        <mxCell id="uWLSrax9oehgRug97Yif-169" value="" style="edgeStyle=orthogonalEdgeStyle;rounded=1;orthogonalLoop=1;jettySize=auto;html=1;labelBackgroundColor=none;fontColor=default;sketch=1;curveFitting=1;jiggle=2;" edge="1" parent="1" source="uWLSrax9oehgRug97Yif-170" target="uWLSrax9oehgRug97Yif-172">
          <mxGeometry relative="1" as="geometry" />
        </mxCell>
        <mxCell id="uWLSrax9oehgRug97Yif-181" style="edgeStyle=orthogonalEdgeStyle;rounded=0;sketch=1;hachureGap=4;jiggle=2;curveFitting=1;orthogonalLoop=1;jettySize=auto;html=1;exitX=1;exitY=0.5;exitDx=0;exitDy=0;entryX=0;entryY=0.5;entryDx=0;entryDy=0;fontFamily=Architects Daughter;fontSource=https%3A%2F%2Ffonts.googleapis.com%2Fcss%3Ffamily%3DArchitects%2BDaughter;" edge="1" parent="1" source="uWLSrax9oehgRug97Yif-170" target="uWLSrax9oehgRug97Yif-180">
          <mxGeometry relative="1" as="geometry" />
        </mxCell>
        <mxCell id="uWLSrax9oehgRug97Yif-170" value="monitor_widget_start" style="rounded=1;whiteSpace=wrap;html=1;labelBackgroundColor=none;sketch=1;curveFitting=1;jiggle=2;" vertex="1" parent="1">
          <mxGeometry x="3470" y="580" width="130" height="30" as="geometry" />
        </mxCell>
        <mxCell id="uWLSrax9oehgRug97Yif-184" style="edgeStyle=orthogonalEdgeStyle;rounded=0;sketch=1;hachureGap=4;jiggle=2;curveFitting=1;orthogonalLoop=1;jettySize=auto;html=1;exitX=1;exitY=0.5;exitDx=0;exitDy=0;entryX=0;entryY=0.5;entryDx=0;entryDy=0;fontFamily=Architects Daughter;fontSource=https%3A%2F%2Ffonts.googleapis.com%2Fcss%3Ffamily%3DArchitects%2BDaughter;" edge="1" parent="1" source="uWLSrax9oehgRug97Yif-172" target="uWLSrax9oehgRug97Yif-182">
          <mxGeometry relative="1" as="geometry" />
        </mxCell>
        <mxCell id="uWLSrax9oehgRug97Yif-172" value="速度显示图表初始化QCustomPlotInit_speed()" style="rounded=1;whiteSpace=wrap;html=1;labelBackgroundColor=none;sketch=1;curveFitting=1;jiggle=2;" vertex="1" parent="1">
          <mxGeometry x="3650" y="550" width="270" height="30" as="geometry" />
        </mxCell>
        <mxCell id="uWLSrax9oehgRug97Yif-173" value="定时添加电流数据realtimeDataSlot_current()" style="rounded=1;whiteSpace=wrap;html=1;labelBackgroundColor=none;sketch=1;curveFitting=1;jiggle=2;" vertex="1" parent="1">
          <mxGeometry x="3970" y="610" width="260" height="30" as="geometry" />
        </mxCell>
        <mxCell id="uWLSrax9oehgRug97Yif-183" style="edgeStyle=orthogonalEdgeStyle;rounded=0;sketch=1;hachureGap=4;jiggle=2;curveFitting=1;orthogonalLoop=1;jettySize=auto;html=1;exitX=1;exitY=0.5;exitDx=0;exitDy=0;entryX=0;entryY=0.5;entryDx=0;entryDy=0;fontFamily=Architects Daughter;fontSource=https%3A%2F%2Ffonts.googleapis.com%2Fcss%3Ffamily%3DArchitects%2BDaughter;" edge="1" parent="1" source="uWLSrax9oehgRug97Yif-180" target="uWLSrax9oehgRug97Yif-173">
          <mxGeometry relative="1" as="geometry" />
        </mxCell>
        <mxCell id="uWLSrax9oehgRug97Yif-180" value="电流显示图表初始化QCustomPlotInit_info()" style="rounded=1;whiteSpace=wrap;html=1;labelBackgroundColor=none;sketch=1;curveFitting=1;jiggle=2;" vertex="1" parent="1">
          <mxGeometry x="3650" y="610" width="270" height="30" as="geometry" />
        </mxCell>
        <mxCell id="uWLSrax9oehgRug97Yif-182" value="定时添加转速数据realtimeDataSlot()" style="rounded=1;whiteSpace=wrap;html=1;labelBackgroundColor=none;sketch=1;curveFitting=1;jiggle=2;" vertex="1" parent="1">
          <mxGeometry x="3970" y="550" width="260" height="30" as="geometry" />
        </mxCell>
        <mxCell id="uWLSrax9oehgRug97Yif-199" style="edgeStyle=orthogonalEdgeStyle;rounded=0;sketch=1;hachureGap=4;jiggle=2;curveFitting=1;orthogonalLoop=1;jettySize=auto;html=1;exitX=1;exitY=0.5;exitDx=0;exitDy=0;entryX=0;entryY=0.5;entryDx=0;entryDy=0;fontFamily=Architects Daughter;fontSource=https%3A%2F%2Ffonts.googleapis.com%2Fcss%3Ffamily%3DArchitects%2BDaughter;" edge="1" parent="1" source="uWLSrax9oehgRug97Yif-186" target="uWLSrax9oehgRug97Yif-188">
          <mxGeometry relative="1" as="geometry" />
        </mxCell>
        <mxCell id="uWLSrax9oehgRug97Yif-200" style="edgeStyle=orthogonalEdgeStyle;rounded=0;sketch=1;hachureGap=4;jiggle=2;curveFitting=1;orthogonalLoop=1;jettySize=auto;html=1;exitX=1;exitY=0.5;exitDx=0;exitDy=0;entryX=0;entryY=0.5;entryDx=0;entryDy=0;fontFamily=Architects Daughter;fontSource=https%3A%2F%2Ffonts.googleapis.com%2Fcss%3Ffamily%3DArchitects%2BDaughter;" edge="1" parent="1" source="uWLSrax9oehgRug97Yif-186" target="uWLSrax9oehgRug97Yif-196">
          <mxGeometry relative="1" as="geometry" />
        </mxCell>
        <mxCell id="uWLSrax9oehgRug97Yif-201" style="edgeStyle=orthogonalEdgeStyle;rounded=0;sketch=1;hachureGap=4;jiggle=2;curveFitting=1;orthogonalLoop=1;jettySize=auto;html=1;exitX=1;exitY=0.5;exitDx=0;exitDy=0;entryX=0;entryY=0.5;entryDx=0;entryDy=0;fontFamily=Architects Daughter;fontSource=https%3A%2F%2Ffonts.googleapis.com%2Fcss%3Ffamily%3DArchitects%2BDaughter;" edge="1" parent="1" source="uWLSrax9oehgRug97Yif-186" target="uWLSrax9oehgRug97Yif-197">
          <mxGeometry relative="1" as="geometry" />
        </mxCell>
        <mxCell id="uWLSrax9oehgRug97Yif-202" style="edgeStyle=orthogonalEdgeStyle;rounded=0;sketch=1;hachureGap=4;jiggle=2;curveFitting=1;orthogonalLoop=1;jettySize=auto;html=1;exitX=1;exitY=0.5;exitDx=0;exitDy=0;entryX=0;entryY=0.5;entryDx=0;entryDy=0;fontFamily=Architects Daughter;fontSource=https%3A%2F%2Ffonts.googleapis.com%2Fcss%3Ffamily%3DArchitects%2BDaughter;" edge="1" parent="1" source="uWLSrax9oehgRug97Yif-186" target="uWLSrax9oehgRug97Yif-198">
          <mxGeometry relative="1" as="geometry" />
        </mxCell>
        <mxCell id="uWLSrax9oehgRug97Yif-186" value="para_window_start" style="rounded=1;whiteSpace=wrap;html=1;labelBackgroundColor=none;sketch=1;curveFitting=1;jiggle=2;" vertex="1" parent="1">
          <mxGeometry x="3450" y="211" width="110" height="30" as="geometry" />
        </mxCell>
        <mxCell id="uWLSrax9oehgRug97Yif-203" style="edgeStyle=orthogonalEdgeStyle;rounded=0;sketch=1;hachureGap=4;jiggle=2;curveFitting=1;orthogonalLoop=1;jettySize=auto;html=1;exitX=1;exitY=0.5;exitDx=0;exitDy=0;entryX=0;entryY=0.5;entryDx=0;entryDy=0;fontFamily=Architects Daughter;fontSource=https%3A%2F%2Ffonts.googleapis.com%2Fcss%3Ffamily%3DArchitects%2BDaughter;" edge="1" parent="1" source="uWLSrax9oehgRug97Yif-188" target="uWLSrax9oehgRug97Yif-189">
          <mxGeometry relative="1" as="geometry" />
        </mxCell>
        <mxCell id="uWLSrax9oehgRug97Yif-188" value="通用配置表格初始化excelInit_general()" style="rounded=1;whiteSpace=wrap;html=1;labelBackgroundColor=none;sketch=1;curveFitting=1;jiggle=2;" vertex="1" parent="1">
          <mxGeometry x="3620" y="130" width="230" height="30" as="geometry" />
        </mxCell>
        <mxCell id="uWLSrax9oehgRug97Yif-219" style="edgeStyle=orthogonalEdgeStyle;rounded=0;sketch=1;hachureGap=4;jiggle=2;curveFitting=1;orthogonalLoop=1;jettySize=auto;html=1;exitX=1;exitY=0.5;exitDx=0;exitDy=0;entryX=0;entryY=0.5;entryDx=0;entryDy=0;fontFamily=Architects Daughter;fontSource=https%3A%2F%2Ffonts.googleapis.com%2Fcss%3Ffamily%3DArchitects%2BDaughter;" edge="1" parent="1" source="uWLSrax9oehgRug97Yif-189" target="uWLSrax9oehgRug97Yif-214">
          <mxGeometry relative="1" as="geometry" />
        </mxCell>
        <mxCell id="uWLSrax9oehgRug97Yif-189" value="通用配置双击表格项槽函数on_tableWidget_general_doubleClicked()" style="rounded=1;whiteSpace=wrap;html=1;labelBackgroundColor=none;sketch=1;curveFitting=1;jiggle=2;" vertex="1" parent="1">
          <mxGeometry x="3890" y="130" width="400" height="30" as="geometry" />
        </mxCell>
        <mxCell id="uWLSrax9oehgRug97Yif-204" style="edgeStyle=orthogonalEdgeStyle;rounded=0;sketch=1;hachureGap=4;jiggle=2;curveFitting=1;orthogonalLoop=1;jettySize=auto;html=1;exitX=1;exitY=0.5;exitDx=0;exitDy=0;fontFamily=Architects Daughter;fontSource=https%3A%2F%2Ffonts.googleapis.com%2Fcss%3Ffamily%3DArchitects%2BDaughter;" edge="1" parent="1" source="uWLSrax9oehgRug97Yif-196">
          <mxGeometry relative="1" as="geometry">
            <mxPoint x="3850.2" y="194.79999999999995" as="targetPoint" />
          </mxGeometry>
        </mxCell>
        <mxCell id="uWLSrax9oehgRug97Yif-208" style="edgeStyle=orthogonalEdgeStyle;rounded=0;sketch=1;hachureGap=4;jiggle=2;curveFitting=1;orthogonalLoop=1;jettySize=auto;html=1;exitX=1;exitY=0.5;exitDx=0;exitDy=0;entryX=0;entryY=0.5;entryDx=0;entryDy=0;fontFamily=Architects Daughter;fontSource=https%3A%2F%2Ffonts.googleapis.com%2Fcss%3Ffamily%3DArchitects%2BDaughter;" edge="1" parent="1" source="uWLSrax9oehgRug97Yif-196" target="uWLSrax9oehgRug97Yif-205">
          <mxGeometry relative="1" as="geometry" />
        </mxCell>
        <mxCell id="uWLSrax9oehgRug97Yif-196" value="保护配置表格初始化excelInit_protect()" style="rounded=1;whiteSpace=wrap;html=1;labelBackgroundColor=none;sketch=1;curveFitting=1;jiggle=2;" vertex="1" parent="1">
          <mxGeometry x="3620" y="180" width="230" height="30" as="geometry" />
        </mxCell>
        <mxCell id="uWLSrax9oehgRug97Yif-211" style="edgeStyle=orthogonalEdgeStyle;rounded=0;sketch=1;hachureGap=4;jiggle=2;curveFitting=1;orthogonalLoop=1;jettySize=auto;html=1;exitX=1;exitY=0.5;exitDx=0;exitDy=0;entryX=0;entryY=0.5;entryDx=0;entryDy=0;fontFamily=Architects Daughter;fontSource=https%3A%2F%2Ffonts.googleapis.com%2Fcss%3Ffamily%3DArchitects%2BDaughter;" edge="1" parent="1" source="uWLSrax9oehgRug97Yif-197" target="uWLSrax9oehgRug97Yif-206">
          <mxGeometry relative="1" as="geometry" />
        </mxCell>
        <mxCell id="uWLSrax9oehgRug97Yif-197" value="硬件配置表格初始化excelInit_hardware()" style="rounded=1;whiteSpace=wrap;html=1;labelBackgroundColor=none;sketch=1;curveFitting=1;jiggle=2;" vertex="1" parent="1">
          <mxGeometry x="3620" y="230" width="230" height="30" as="geometry" />
        </mxCell>
        <mxCell id="uWLSrax9oehgRug97Yif-212" style="edgeStyle=orthogonalEdgeStyle;rounded=0;sketch=1;hachureGap=4;jiggle=2;curveFitting=1;orthogonalLoop=1;jettySize=auto;html=1;exitX=1;exitY=0.5;exitDx=0;exitDy=0;entryX=0;entryY=0.5;entryDx=0;entryDy=0;fontFamily=Architects Daughter;fontSource=https%3A%2F%2Ffonts.googleapis.com%2Fcss%3Ffamily%3DArchitects%2BDaughter;" edge="1" parent="1" source="uWLSrax9oehgRug97Yif-198" target="uWLSrax9oehgRug97Yif-207">
          <mxGeometry relative="1" as="geometry" />
        </mxCell>
        <mxCell id="uWLSrax9oehgRug97Yif-198" value="驱动配置表格初始化excelInit_driver()" style="rounded=1;whiteSpace=wrap;html=1;labelBackgroundColor=none;sketch=1;curveFitting=1;jiggle=2;" vertex="1" parent="1">
          <mxGeometry x="3620" y="285" width="230" height="30" as="geometry" />
        </mxCell>
        <mxCell id="uWLSrax9oehgRug97Yif-216" style="edgeStyle=orthogonalEdgeStyle;rounded=0;sketch=1;hachureGap=4;jiggle=2;curveFitting=1;orthogonalLoop=1;jettySize=auto;html=1;exitX=1;exitY=0.5;exitDx=0;exitDy=0;entryX=0;entryY=0.5;entryDx=0;entryDy=0;fontFamily=Architects Daughter;fontSource=https%3A%2F%2Ffonts.googleapis.com%2Fcss%3Ffamily%3DArchitects%2BDaughter;" edge="1" parent="1" source="uWLSrax9oehgRug97Yif-205" target="uWLSrax9oehgRug97Yif-214">
          <mxGeometry relative="1" as="geometry" />
        </mxCell>
        <mxCell id="uWLSrax9oehgRug97Yif-205" value="保护配置双击表格项槽函数on_tableWidget_protect_doubleClicked()" style="rounded=1;whiteSpace=wrap;html=1;labelBackgroundColor=none;sketch=1;curveFitting=1;jiggle=2;" vertex="1" parent="1">
          <mxGeometry x="3890" y="180" width="400" height="30" as="geometry" />
        </mxCell>
        <mxCell id="uWLSrax9oehgRug97Yif-217" style="edgeStyle=orthogonalEdgeStyle;rounded=0;sketch=1;hachureGap=4;jiggle=2;curveFitting=1;orthogonalLoop=1;jettySize=auto;html=1;exitX=1;exitY=0.5;exitDx=0;exitDy=0;fontFamily=Architects Daughter;fontSource=https%3A%2F%2Ffonts.googleapis.com%2Fcss%3Ffamily%3DArchitects%2BDaughter;" edge="1" parent="1" source="uWLSrax9oehgRug97Yif-206" target="uWLSrax9oehgRug97Yif-214">
          <mxGeometry relative="1" as="geometry" />
        </mxCell>
        <mxCell id="uWLSrax9oehgRug97Yif-206" value="硬件配置双击表格项槽函数on_tableWidget_hardware_doubleClicked()" style="rounded=1;whiteSpace=wrap;html=1;labelBackgroundColor=none;sketch=1;curveFitting=1;jiggle=2;" vertex="1" parent="1">
          <mxGeometry x="3890" y="230" width="400" height="30" as="geometry" />
        </mxCell>
        <mxCell id="uWLSrax9oehgRug97Yif-218" style="edgeStyle=orthogonalEdgeStyle;rounded=0;sketch=1;hachureGap=4;jiggle=2;curveFitting=1;orthogonalLoop=1;jettySize=auto;html=1;exitX=1;exitY=0.5;exitDx=0;exitDy=0;entryX=0;entryY=0.5;entryDx=0;entryDy=0;fontFamily=Architects Daughter;fontSource=https%3A%2F%2Ffonts.googleapis.com%2Fcss%3Ffamily%3DArchitects%2BDaughter;" edge="1" parent="1" source="uWLSrax9oehgRug97Yif-207" target="uWLSrax9oehgRug97Yif-214">
          <mxGeometry relative="1" as="geometry" />
        </mxCell>
        <mxCell id="uWLSrax9oehgRug97Yif-207" value="驱动配置双击表格项槽函数on_tableWidget_driver_doubleClicked()" style="rounded=1;whiteSpace=wrap;html=1;labelBackgroundColor=none;sketch=1;curveFitting=1;jiggle=2;" vertex="1" parent="1">
          <mxGeometry x="3890" y="285" width="400" height="30" as="geometry" />
        </mxCell>
        <mxCell id="uWLSrax9oehgRug97Yif-213" value="配置界面生成from-&amp;gt;show()" style="rounded=1;whiteSpace=wrap;html=1;labelBackgroundColor=none;sketch=1;curveFitting=1;jiggle=2;" vertex="1" parent="1">
          <mxGeometry x="4500" y="205" width="170" height="30" as="geometry" />
        </mxCell>
        <mxCell id="uWLSrax9oehgRug97Yif-215" style="edgeStyle=orthogonalEdgeStyle;rounded=0;sketch=1;hachureGap=4;jiggle=2;curveFitting=1;orthogonalLoop=1;jettySize=auto;html=1;exitX=1;exitY=0.5;exitDx=0;exitDy=0;entryX=0;entryY=0.5;entryDx=0;entryDy=0;fontFamily=Architects Daughter;fontSource=https%3A%2F%2Ffonts.googleapis.com%2Fcss%3Ffamily%3DArchitects%2BDaughter;" edge="1" parent="1" source="uWLSrax9oehgRug97Yif-214" target="uWLSrax9oehgRug97Yif-213">
          <mxGeometry relative="1" as="geometry" />
        </mxCell>
        <mxCell id="uWLSrax9oehgRug97Yif-214" value="当前配置标题设置" style="rounded=1;whiteSpace=wrap;html=1;labelBackgroundColor=none;sketch=1;curveFitting=1;jiggle=2;" vertex="1" parent="1">
          <mxGeometry x="4340" y="205" width="120" height="30" as="geometry" />
        </mxCell>
        <mxCell id="uWLSrax9oehgRug97Yif-229" style="edgeStyle=orthogonalEdgeStyle;rounded=0;sketch=1;hachureGap=4;jiggle=2;curveFitting=1;orthogonalLoop=1;jettySize=auto;html=1;exitX=1;exitY=0.5;exitDx=0;exitDy=0;entryX=0;entryY=0.5;entryDx=0;entryDy=0;fontFamily=Architects Daughter;fontSource=https%3A%2F%2Ffonts.googleapis.com%2Fcss%3Ffamily%3DArchitects%2BDaughter;" edge="1" parent="1" source="uWLSrax9oehgRug97Yif-222" target="uWLSrax9oehgRug97Yif-224">
          <mxGeometry relative="1" as="geometry" />
        </mxCell>
        <mxCell id="uWLSrax9oehgRug97Yif-222" value="form1_widget_start" style="rounded=1;whiteSpace=wrap;html=1;labelBackgroundColor=none;sketch=1;curveFitting=1;jiggle=2;" vertex="1" parent="1">
          <mxGeometry x="3470" y="710" width="130" height="30" as="geometry" />
        </mxCell>
        <mxCell id="uWLSrax9oehgRug97Yif-223" style="edgeStyle=orthogonalEdgeStyle;rounded=0;sketch=1;hachureGap=4;jiggle=2;curveFitting=1;orthogonalLoop=1;jettySize=auto;html=1;exitX=1;exitY=0.5;exitDx=0;exitDy=0;entryX=0;entryY=0.5;entryDx=0;entryDy=0;fontFamily=Architects Daughter;fontSource=https%3A%2F%2Ffonts.googleapis.com%2Fcss%3Ffamily%3DArchitects%2BDaughter;" edge="1" parent="1" source="uWLSrax9oehgRug97Yif-224" target="uWLSrax9oehgRug97Yif-228">
          <mxGeometry relative="1" as="geometry" />
        </mxCell>
        <mxCell id="uWLSrax9oehgRug97Yif-224" value="判断窗口标题on_Form1_windowTitleChanged()" style="rounded=1;whiteSpace=wrap;html=1;labelBackgroundColor=none;sketch=1;curveFitting=1;jiggle=2;" vertex="1" parent="1">
          <mxGeometry x="3630" y="710" width="270" height="30" as="geometry" />
        </mxCell>
        <mxCell id="uWLSrax9oehgRug97Yif-232" style="edgeStyle=orthogonalEdgeStyle;rounded=0;sketch=1;hachureGap=4;jiggle=2;curveFitting=1;orthogonalLoop=1;jettySize=auto;html=1;exitX=1;exitY=0.5;exitDx=0;exitDy=0;fontFamily=Architects Daughter;fontSource=https%3A%2F%2Ffonts.googleapis.com%2Fcss%3Ffamily%3DArchitects%2BDaughter;" edge="1" parent="1" source="uWLSrax9oehgRug97Yif-228" target="uWLSrax9oehgRug97Yif-231">
          <mxGeometry relative="1" as="geometry" />
        </mxCell>
        <mxCell id="uWLSrax9oehgRug97Yif-228" value="详细信息显示" style="rounded=1;whiteSpace=wrap;html=1;labelBackgroundColor=none;sketch=1;curveFitting=1;jiggle=2;" vertex="1" parent="1">
          <mxGeometry x="3940" y="710" width="90" height="30" as="geometry" />
        </mxCell>
        <mxCell id="uWLSrax9oehgRug97Yif-231" value="参数下发on_pushButton_clicked()" style="rounded=1;whiteSpace=wrap;html=1;labelBackgroundColor=none;sketch=1;curveFitting=1;jiggle=2;" vertex="1" parent="1">
          <mxGeometry x="4060" y="710" width="200" height="30" as="geometry" />
        </mxCell>
      </root>
    </mxGraphModel>
  </diagram>
</mxfile>
